<svg width="20" height="20" viewBox="0 0 20 20" fill="none" xmlns="http://www.w3.org/2000/svg">
<path d="M14.7141 13.8807C13.9336 14.6612 12.3013 16.2935 11.1782 17.4166C10.5273 18.0675 9.47311 18.0678 8.82223 17.4169C7.71866 16.3134 6.11803 14.7127 5.286 13.8807C2.6825 11.2772 2.6825 7.05612 5.286 4.45262C7.88949 1.84913 12.1106 1.84913 14.7141 4.45262C17.3176 7.05612 17.3176 11.2772 14.7141 13.8807Z" stroke="#ACADB9" stroke-width="1.25" stroke-linecap="round" stroke-linejoin="round"/>
<path d="M12.5 9.16667C12.5 10.5474 11.3808 11.6667 10 11.6667C8.61933 11.6667 7.50004 10.5474 7.50004 9.16667C7.50004 7.78595 8.61933 6.66667 10 6.66667C11.3808 6.66667 12.5 7.78595 12.5 9.16667Z" stroke="#ACADB9" stroke-width="1.25" stroke-linecap="round" stroke-linejoin="round"/>
</svg>
